<svg version="1.1" id="Layer_1" xmlns="http://www.w3.org/2000/svg" xmlns:xlink="http://www.w3.org/1999/xlink" x="0px" y="0px"
	 width="100%" viewBox="0 0 1500 1500" enable-background="new 0 0 1500 1500" xml:space="preserve">
<path fill="#000000" opacity="1.000000" stroke="none" 
	d="
M1.000000,570.000000 
	C1.000000,380.000031 1.000000,190.500061 1.000000,1.000076 
	C500.999878,1.000051 1000.999756,1.000051 1500.999756,1.000025 
	C1500.999756,500.999786 1500.999756,1000.999573 1500.999878,1500.999512 
	C1001.000305,1500.999756 501.000610,1500.999756 1.000453,1500.999878 
	C1.000000,1190.833374 1.000000,880.666687 1.000000,570.000000 
M57.075329,412.186615 
	C57.655464,424.986481 54.110806,436.759583 46.848690,447.078369 
	C41.500366,454.677826 34.667728,461.216003 29.018673,468.625244 
	C23.656879,475.657684 18.339891,482.863861 14.138961,490.609589 
	C7.612375,502.643433 6.913978,516.089417 8.206080,529.353394 
	C8.992690,537.428284 11.096314,545.561462 13.857811,553.217773 
	C19.249754,568.166931 30.850460,578.938904 41.115997,590.441284 
	C50.836594,601.333069 55.829334,614.007141 56.910507,628.205505 
	C58.405056,647.832397 51.402855,664.468323 37.933998,678.667542 
	C32.991089,683.878479 28.459902,689.505554 24.016195,695.159180 
	C14.835512,706.839600 9.257131,719.790527 7.699771,734.909973 
	C6.407705,747.453857 8.179809,759.203064 12.028881,770.850952 
	C16.314730,783.820679 25.266949,793.744873 34.158684,803.684082 
	C45.413567,816.265015 54.949638,829.423218 56.283695,847.414917 
	C57.142677,858.999573 55.474834,869.554138 51.030697,880.044861 
	C46.199543,891.449158 37.255707,899.748108 29.475458,908.850891 
	C18.410620,921.796509 9.850728,935.533020 7.796023,953.008057 
	C6.035431,967.981812 7.415090,982.197021 13.464714,996.001953 
	C19.208101,1009.108093 28.934376,1019.308044 38.314777,1029.650024 
	C49.864277,1042.383423 56.338654,1056.850464 56.011253,1075.049683 
	C56.007568,1105.714233 55.887691,1136.379517 56.042255,1167.043213 
	C56.140446,1186.523193 62.712944,1203.511353 76.799873,1217.266235 
	C82.300308,1222.637085 87.929237,1227.879883 93.595673,1233.076294 
	C107.243752,1245.592529 123.645798,1252.643677 141.861038,1252.791626 
	C207.518967,1253.325073 273.183807,1253.007202 339.135315,1253.653931 
	C339.610687,1254.117065 340.021423,1254.682983 340.570892,1255.028320 
	C358.575348,1266.341187 376.201385,1278.331543 394.724915,1288.721313 
	C411.508392,1298.134766 429.544861,1305.135498 447.931274,1311.036133 
	C470.084167,1318.145386 492.464752,1324.249634 515.641663,1327.036133 
	C531.654175,1328.961182 547.626038,1331.261353 563.665649,1332.911499 
	C574.616089,1334.038086 585.645325,1334.713013 596.651428,1334.909912 
	C612.786865,1335.198608 628.933105,1334.878906 645.734558,1335.179565 
	C647.026978,1335.762451 648.314941,1336.355347 649.612366,1336.926758 
	C673.017029,1347.234863 697.321350,1351.175293 722.839172,1348.080688 
	C741.888245,1345.770752 759.703369,1339.743896 777.875549,1332.000732 
	C780.452820,1331.667236 783.024902,1331.092896 785.608093,1331.038330 
	C804.684265,1330.634033 823.762451,1330.327515 842.840210,1330.001587 
	C862.751953,1329.661255 882.668335,1329.492065 902.574402,1328.946655 
	C916.919922,1328.553589 931.261719,1327.827393 945.587036,1326.952881 
	C958.196411,1326.182983 970.822510,1325.363281 983.365906,1323.913940 
	C1000.492920,1321.934814 1017.721619,1320.195679 1034.591553,1316.791870 
	C1056.381958,1312.395264 1078.029541,1307.054688 1099.432495,1301.033081 
	C1127.274292,1293.200195 1153.273682,1280.826538 1178.033081,1265.932373 
	C1183.938232,1262.380127 1189.386475,1258.068604 1195.972656,1254.015869 
	C1252.610107,1254.010620 1309.248047,1253.861572 1365.884521,1254.097412 
	C1380.723511,1254.159180 1393.792236,1249.342651 1405.810303,1241.471802 
	C1411.669067,1237.634766 1416.324097,1232.011597 1421.911011,1227.698242 
	C1438.790527,1214.666870 1447.960815,1196.859863 1448.629761,1176.363770 
	C1449.862305,1138.595703 1448.887451,1100.755615 1448.968628,1062.053345 
	C1449.872314,1055.950195 1450.174072,1049.681641 1451.796265,1043.775757 
	C1456.092407,1028.134521 1466.677979,1016.019226 1475.467773,1002.869995 
	C1481.453857,993.914612 1487.433594,984.757141 1491.810669,974.971863 
	C1497.819702,961.537964 1499.310547,947.184937 1497.144287,932.363647 
	C1495.644775,922.103699 1493.438843,912.177917 1487.239502,903.852844 
	C1479.353027,893.261963 1470.721802,883.226318 1462.434326,872.933167 
	C1448.195801,855.249146 1445.927002,835.097168 1451.161133,813.857666 
	C1454.631592,799.775391 1464.871948,789.709778 1474.227173,779.346924 
	C1485.729492,766.605652 1494.727905,752.824097 1497.132446,735.240967 
	C1499.942261,714.694458 1497.052856,695.474060 1484.801147,678.513428 
	C1477.543579,668.466492 1468.745239,659.544067 1461.268921,649.641113 
	C1446.129395,629.588013 1445.313354,607.624573 1454.577881,585.068237 
	C1459.365601,573.411682 1469.175171,565.178894 1476.860840,555.496643 
	C1481.968872,549.061584 1487.084229,542.422729 1490.844360,535.173828 
	C1497.378052,522.578430 1499.712402,509.036224 1498.176147,494.653412 
	C1497.163818,485.175079 1495.174194,476.231323 1491.235596,467.569366 
	C1485.714844,455.427765 1476.343506,446.211578 1467.773926,436.478668 
	C1456.208130,423.342712 1449.446655,408.652832 1449.983276,390.051208 
	C1449.988770,363.234375 1450.057739,336.417328 1449.974365,309.600769 
	C1449.930054,295.356079 1446.034790,281.862549 1437.674438,270.599213 
	C1430.036133,260.308868 1420.709473,251.174026 1411.500366,242.170959 
	C1398.118042,229.088181 1381.531982,222.241531 1362.960449,222.134750 
	C1298.336060,221.763199 1233.708496,221.953369 1168.796021,221.297852 
	C1166.906860,219.742996 1165.085693,218.095551 1163.118042,216.647446 
	C1141.811523,200.967529 1120.807373,184.849121 1099.068848,169.791443 
	C1076.433350,154.112427 1051.779785,142.107025 1025.967651,132.369995 
	C1003.961060,124.068489 981.238525,118.939529 957.943542,117.264740 
	C943.121826,116.199135 928.081604,117.132912 913.206726,118.152153 
	C899.725464,119.075905 886.174500,120.529022 872.942932,123.186020 
	C853.332336,127.123947 833.747314,131.549881 814.565857,137.179901 
	C785.224365,145.792023 756.236084,155.607468 726.836548,164.293594 
	C716.701355,154.835632 706.661255,145.273071 696.406311,135.946762 
	C684.245605,124.887314 670.367737,116.284241 655.709717,109.027565 
	C635.311096,98.928917 613.909424,92.626175 590.995117,90.726234 
	C577.701599,89.624001 565.060913,91.149040 552.277527,93.925461 
	C524.033813,100.059731 504.319122,117.838646 487.922699,140.389740 
	C475.907959,156.914459 467.037140,175.125275 458.812469,193.685394 
	C454.796448,202.748093 451.240173,212.014511 446.463715,221.030350 
	C343.022858,221.020233 239.581940,221.046799 136.141144,220.950546 
	C124.092560,220.939331 113.624825,225.349319 103.433998,231.052246 
	C94.198631,236.220459 88.377403,244.896286 81.125816,252.149933 
	C65.348022,267.932190 57.640968,287.165314 57.206585,308.879517 
	C56.523853,343.007935 57.119793,377.161957 57.075329,412.186615 
z"/>
<path fill="#F7DFFF" opacity="1.000000" stroke="none" 
	d="
M447.475769,221.188690 
	C451.240173,212.014511 454.796448,202.748093 458.812469,193.685394 
	C467.037140,175.125275 475.907959,156.914459 487.922699,140.389740 
	C504.319122,117.838646 524.033813,100.059731 552.277527,93.925461 
	C565.060913,91.149040 577.701599,89.624001 590.995117,90.726234 
	C613.909424,92.626175 635.311096,98.928917 655.709717,109.027565 
	C670.367737,116.284241 684.245605,124.887314 696.406311,135.946762 
	C706.661255,145.273071 716.701355,154.835632 727.066040,164.919220 
	C741.762817,178.514816 755.855774,191.938293 770.825989,204.299286 
	C781.238403,212.896942 793.444092,218.826691 807.025757,222.293457 
	C809.472168,223.328674 811.609619,224.303207 813.852905,224.794678 
	C835.188049,229.469040 856.903625,230.862701 878.630859,231.947174 
	C891.200684,232.574585 903.802368,232.538849 916.379272,233.057007 
	C924.592590,233.395386 932.786987,234.191925 941.433838,234.831406 
	C944.250061,234.833237 946.622253,234.786926 949.010498,234.805298 
	C949.026611,234.869965 948.963745,234.987503 949.261597,235.261505 
	C970.789856,239.037125 992.282715,241.407745 1013.200012,246.259552 
	C1068.501587,259.086853 1111.839233,289.432495 1142.403931,337.645172 
	C1157.256714,361.073914 1168.814941,386.071625 1178.428467,411.893250 
	C1175.805298,411.973694 1173.639282,411.998352 1171.473145,411.998383 
	C903.839905,412.000092 636.206665,411.990021 368.573425,412.041840 
	C359.288330,412.043610 349.994446,412.505219 340.720245,413.028381 
	C324.607086,413.937317 309.909424,419.207947 297.059692,428.890442 
	C279.521057,442.106140 269.458923,459.074402 269.783997,481.951172 
	C270.309570,518.939087 269.924591,555.939941 269.924591,592.935303 
	C269.924622,730.418152 269.883057,867.901001 270.029877,1005.383667 
	C270.038605,1013.563049 270.319397,1022.103638 272.587891,1029.857544 
	C283.208740,1066.159912 315.500977,1090.045166 354.610016,1090.000000 
	C610.744324,1089.703979 866.879211,1089.852295 1123.013916,1089.810547 
	C1127.788574,1089.809814 1132.612793,1089.598999 1137.329956,1088.910889 
	C1177.826050,1083.002563 1207.950195,1050.067993 1207.970093,1006.468933 
	C1208.047241,837.490051 1208.000732,668.511169 1208.008667,499.532257 
	C1208.008911,496.368958 1208.112427,493.205627 1208.416870,490.274109 
	C1218.883423,514.125977 1231.908936,536.108276 1246.959961,556.962402 
	C1263.986816,580.554077 1283.710938,601.601379 1305.977417,620.262085 
	C1323.063843,634.581543 1339.878052,649.170959 1354.007690,666.524719 
	C1369.628906,685.710449 1378.420532,707.362183 1378.147095,732.508301 
	C1377.916016,753.756775 1372.228882,773.767151 1363.419556,792.590454 
	C1350.098755,821.053589 1335.973022,849.202271 1320.809204,876.724060 
	C1303.432495,908.262329 1293.219116,941.776733 1289.153687,977.282166 
	C1286.664307,999.023376 1285.641846,1020.939880 1282.882324,1042.640503 
	C1280.273071,1063.158691 1277.275513,1083.734863 1272.598633,1103.855469 
	C1266.696655,1129.247314 1256.829468,1153.307495 1241.196411,1174.521851 
	C1226.238159,1194.820312 1206.634277,1208.501343 1182.475464,1216.243530 
	C1160.921387,1223.151001 1138.735962,1223.826416 1116.551636,1224.778320 
	C1105.780884,1225.240479 1094.954224,1224.260986 1084.150269,1224.113281 
	C1052.224365,1223.676758 1020.248962,1223.594238 988.719116,1229.211914 
	C973.288391,1231.961304 958.250244,1236.914307 942.567017,1240.930664 
	C810.771545,1240.891846 679.443420,1240.793457 548.115295,1240.673828 
	C546.800110,1240.672607 545.485168,1240.392822 544.049194,1239.964600 
	C530.595215,1222.292969 517.992371,1204.274658 503.756226,1187.655273 
	C482.924622,1163.336426 456.675659,1146.045654 426.719299,1134.927002 
	C401.793335,1125.675659 376.319855,1117.906982 351.324646,1108.832397 
	C331.656830,1101.691895 311.883209,1094.546997 292.994110,1085.630005 
	C267.503937,1073.596802 246.574234,1055.312866 229.476547,1032.871948 
	C213.753601,1012.235413 204.704666,989.138733 203.906433,962.904785 
	C203.230530,940.691345 206.819763,918.883606 209.255463,896.961975 
	C211.818649,873.892639 215.950180,850.857849 212.908096,827.580750 
	C211.067108,813.494263 208.985718,799.270081 205.095901,785.655273 
	C196.707184,756.293945 180.292419,730.521484 166.116257,703.803101 
	C152.557465,678.248291 141.632233,651.777588 136.017883,623.306519 
	C134.168167,613.926392 132.762360,604.458740 131.076004,594.566162 
	C131.332153,585.544128 131.492737,576.975891 132.037888,568.432251 
	C132.990814,553.497925 137.188797,539.407715 143.541733,525.898132 
	C150.102356,511.946838 159.381714,499.994751 170.503601,489.045074 
	C175.510925,484.998230 180.118820,480.944092 184.877914,477.075958 
	C204.099777,461.452789 225.871292,449.932739 247.555191,438.278046 
	C270.410217,425.993896 293.476227,414.082184 316.044403,401.291962 
	C329.782990,393.505829 342.208527,383.710205 352.823975,371.809326 
	C357.884674,366.135834 362.710236,360.097443 368.517883,355.279938 
	C378.432220,347.055908 387.376923,338.026245 395.112366,327.784424 
	C410.261902,307.726379 421.248688,285.354523 431.001190,262.339478 
	C434.949524,253.021851 438.434204,243.507751 442.385559,233.842285 
	C444.252747,229.463898 445.864258,225.326294 447.475769,221.188690 
z"/>
<path fill="#FF9BCB" opacity="1.000000" stroke="none" 
	d="
M806.765991,222.008682 
	C793.444092,218.826691 781.238403,212.896942 770.825989,204.299286 
	C755.855774,191.938293 741.762817,178.514816 727.196655,165.228455 
	C756.236084,155.607468 785.224365,145.792023 814.565857,137.179901 
	C833.747314,131.549881 853.332336,127.123947 872.942932,123.186020 
	C886.174500,120.529022 899.725464,119.075905 913.206726,118.152153 
	C928.081604,117.132912 943.121826,116.199135 957.943542,117.264740 
	C981.238525,118.939529 1003.961060,124.068489 1025.967651,132.369995 
	C1051.779785,142.107025 1076.433350,154.112427 1099.068848,169.791443 
	C1120.807373,184.849121 1141.811523,200.967529 1163.118042,216.647446 
	C1165.085693,218.095551 1166.906860,219.742996 1168.476074,221.723022 
	C1094.344971,222.114227 1020.533997,222.077103 946.722961,222.047470 
	C900.070618,222.028748 853.418335,222.021225 806.765991,222.008682 
z"/>
<path fill="#F7DFFF" opacity="1.000000" stroke="none" 
	d="
M777.015015,1331.841919 
	C759.703369,1339.743896 741.888245,1345.770752 722.839172,1348.080688 
	C697.321350,1351.175293 673.017029,1347.234863 649.612366,1336.926758 
	C648.314941,1336.355347 647.026978,1335.762451 645.206787,1334.723755 
	C643.993469,1333.807495 643.348694,1333.265869 642.616638,1332.898193 
	C605.792358,1314.404785 577.512207,1286.432983 554.516052,1253.038330 
	C668.438477,1253.058472 781.899902,1253.144409 895.361389,1253.241089 
	C900.523804,1253.245605 905.686096,1253.348877 910.860229,1253.570557 
	C910.872070,1253.734985 910.926880,1254.061523 910.715698,1254.320557 
	C899.025757,1260.909058 887.368164,1266.937744 876.108215,1273.635010 
	C856.717346,1285.168701 837.698547,1297.329102 818.284546,1308.822632 
	C804.734619,1316.844604 790.785706,1324.192749 777.015015,1331.841919 
z"/>
<path fill="#5271FF" opacity="1.000000" stroke="none" 
	d="
M910.848450,1253.406250 
	C905.686096,1253.348877 900.523804,1253.245605 895.361389,1253.241089 
	C781.899902,1253.144409 668.438477,1253.058472 554.046509,1252.969482 
	C482.685028,1252.899780 412.253998,1252.829834 341.822937,1252.772583 
	C340.830688,1252.771729 339.838348,1252.927979 338.846039,1253.010742 
	C273.183807,1253.007202 207.518967,1253.325073 141.861038,1252.791626 
	C123.645798,1252.643677 107.243752,1245.592529 93.595673,1233.076294 
	C87.929237,1227.879883 82.300308,1222.637085 76.799873,1217.266235 
	C62.712944,1203.511353 56.140446,1186.523193 56.042255,1167.043213 
	C55.887691,1136.379517 56.007568,1105.714233 56.329391,1074.339111 
	C58.818630,1072.015747 61.141327,1068.955200 63.121819,1069.162476 
	C65.512405,1069.412842 67.612816,1072.434204 69.914108,1074.691650 
	C69.992722,1106.944580 70.070229,1138.762207 69.952393,1170.579346 
	C69.918770,1179.658081 72.669975,1187.841187 77.085197,1195.511353 
	C85.161880,1209.542480 97.698555,1219.372070 110.252029,1228.893188 
	C120.644882,1236.775757 133.201569,1239.812134 146.094177,1239.905518 
	C183.073837,1240.173584 220.056717,1240.017944 257.038300,1239.992920 
	C278.357697,1239.978516 299.677002,1239.894775 321.460815,1239.905029 
	C332.249878,1240.008667 342.574524,1240.051880 352.899139,1240.089600 
	C407.682953,1240.289795 462.466675,1240.513062 517.250610,1240.663818 
	C526.223328,1240.688477 535.196899,1240.391602 544.170105,1240.243164 
	C545.485168,1240.392822 546.800110,1240.672607 548.115295,1240.673828 
	C679.443420,1240.793457 810.771545,1240.891846 943.028564,1240.996582 
	C1031.984375,1241.086304 1120.011353,1241.173584 1208.038330,1241.236816 
	C1210.026978,1241.238159 1212.015869,1240.965454 1214.468750,1240.898193 
	C1266.235596,1240.983887 1317.541992,1241.288818 1368.837524,1240.687256 
	C1376.741455,1240.594604 1385.049683,1237.287964 1392.374390,1233.796631 
	C1405.322510,1227.624878 1415.134033,1217.068970 1423.980957,1206.141113 
	C1430.974609,1197.502197 1434.930664,1187.028320 1435.027466,1175.453735 
	C1435.347046,1137.213989 1435.784302,1098.975098 1436.425537,1060.529541 
	C1441.517456,1055.152588 1445.455688,1056.002075 1448.832520,1062.945557 
	C1448.887451,1100.755615 1449.862305,1138.595703 1448.629761,1176.363770 
	C1447.960815,1196.859863 1438.790527,1214.666870 1421.911011,1227.698242 
	C1416.324097,1232.011597 1411.669067,1237.634766 1405.810303,1241.471802 
	C1393.792236,1249.342651 1380.723511,1254.159180 1365.884521,1254.097412 
	C1309.248047,1253.861572 1252.610107,1254.010620 1195.042236,1253.993408 
	C1150.663452,1253.902466 1107.215332,1253.836060 1063.767090,1253.764282 
	C1048.119141,1253.738403 1032.471191,1253.705078 1016.823181,1253.666016 
	C982.205566,1253.579590 947.587952,1253.487183 912.622192,1253.288208 
	C911.798828,1253.255005 911.323669,1253.330566 910.848450,1253.406250 
z"/>
<path fill="#FF9BCB" opacity="1.000000" stroke="none" 
	d="
M912.970337,1253.397095 
	C947.587952,1253.487183 982.205566,1253.579590 1016.823181,1253.666016 
	C1032.471191,1253.705078 1048.119141,1253.738403 1063.767090,1253.764282 
	C1107.215332,1253.836060 1150.663452,1253.902466 1194.578369,1254.038574 
	C1189.386475,1258.068604 1183.938232,1262.380127 1178.033081,1265.932373 
	C1153.273682,1280.826538 1127.274292,1293.200195 1099.432495,1301.033081 
	C1078.029541,1307.054688 1056.381958,1312.395264 1034.591553,1316.791870 
	C1017.721619,1320.195679 1000.492920,1321.934814 983.365906,1323.913940 
	C970.822510,1325.363281 958.196411,1326.182983 945.587036,1326.952881 
	C931.261719,1327.827393 916.919922,1328.553589 902.574402,1328.946655 
	C882.668335,1329.492065 862.751953,1329.661255 842.840210,1330.001587 
	C823.762451,1330.327515 804.684265,1330.634033 785.608093,1331.038330 
	C783.024902,1331.092896 780.452820,1331.667236 777.445312,1331.921387 
	C790.785706,1324.192749 804.734619,1316.844604 818.284546,1308.822632 
	C837.698547,1297.329102 856.717346,1285.168701 876.108215,1273.635010 
	C887.368164,1266.937744 899.025757,1260.909058 910.993225,1254.292969 
	C911.978088,1253.803223 912.474243,1253.600098 912.970337,1253.397095 
z"/>
<path fill="#FF9BCB" opacity="1.000000" stroke="none" 
	d="
M338.990662,1253.332275 
	C339.838348,1252.927979 340.830688,1252.771729 341.822937,1252.772583 
	C412.253998,1252.829834 482.685028,1252.899780 553.585571,1253.037354 
	C577.512207,1286.432983 605.792358,1314.404785 642.616638,1332.898193 
	C643.348694,1333.265869 643.993469,1333.807495 644.876831,1334.543213 
	C628.933105,1334.878906 612.786865,1335.198608 596.651428,1334.909912 
	C585.645325,1334.713013 574.616089,1334.038086 563.665649,1332.911499 
	C547.626038,1331.261353 531.654175,1328.961182 515.641663,1327.036133 
	C492.464752,1324.249634 470.084167,1318.145386 447.931274,1311.036133 
	C429.544861,1305.135498 411.508392,1298.134766 394.724915,1288.721313 
	C376.201385,1278.331543 358.575348,1266.341187 340.570892,1255.028320 
	C340.021423,1254.682983 339.610687,1254.117065 338.990662,1253.332275 
z"/>
<path fill="#FF9BCB" opacity="1.000000" stroke="none" 
	d="
M1448.900635,1062.499512 
	C1445.455688,1056.002075 1441.517456,1055.152588 1436.357910,1060.101318 
	C1435.782471,1046.892212 1439.064697,1034.707275 1445.815308,1023.774719 
	C1453.457397,1011.398376 1461.724487,999.390015 1470.096558,987.486572 
	C1481.945679,970.639099 1487.045044,952.145447 1483.895264,931.782166 
	C1481.862183,918.637329 1475.104614,907.646057 1466.336182,897.761536 
	C1460.039917,890.664001 1453.406616,883.716797 1448.142944,875.883301 
	C1437.554077,860.125183 1433.635742,842.635864 1435.822754,823.514160 
	C1437.169556,811.738098 1440.691895,800.903137 1447.329590,791.456360 
	C1454.259277,781.593872 1462.509033,772.658875 1470.182251,763.318848 
	C1483.568237,747.025146 1487.725586,728.510376 1483.513550,707.975830 
	C1480.484863,693.209839 1471.628784,681.880737 1461.701904,671.235596 
	C1449.336426,657.975403 1439.121216,643.757507 1436.844849,624.940002 
	C1434.899780,608.862488 1435.738525,593.396667 1442.823120,578.556030 
	C1448.761963,566.115295 1458.737061,556.793457 1467.117432,546.218262 
	C1471.903442,540.178711 1476.166260,533.629883 1479.935425,526.901855 
	C1485.237183,517.438293 1485.369263,506.860779 1484.991821,496.329803 
	C1484.561035,484.315247 1480.684082,473.405365 1473.351685,463.981995 
	C1467.314697,456.223846 1460.269409,449.249878 1454.238892,441.487274 
	C1442.755249,426.705536 1435.718262,410.223816 1436.951172,390.648346 
	C1437.890503,387.196716 1439.744141,386.046631 1443.088501,385.858337 
	C1447.195557,385.627045 1448.432251,388.169037 1449.833496,390.970581 
	C1449.446655,408.652832 1456.208130,423.342712 1467.773926,436.478668 
	C1476.343506,446.211578 1485.714844,455.427765 1491.235596,467.569366 
	C1495.174194,476.231323 1497.163818,485.175079 1498.176147,494.653412 
	C1499.712402,509.036224 1497.378052,522.578430 1490.844360,535.173828 
	C1487.084229,542.422729 1481.968872,549.061584 1476.860840,555.496643 
	C1469.175171,565.178894 1459.365601,573.411682 1454.577881,585.068237 
	C1445.313354,607.624573 1446.129395,629.588013 1461.268921,649.641113 
	C1468.745239,659.544067 1477.543579,668.466492 1484.801147,678.513428 
	C1497.052856,695.474060 1499.942261,714.694458 1497.132446,735.240967 
	C1494.727905,752.824097 1485.729492,766.605652 1474.227173,779.346924 
	C1464.871948,789.709778 1454.631592,799.775391 1451.161133,813.857666 
	C1445.927002,835.097168 1448.195801,855.249146 1462.434326,872.933167 
	C1470.721802,883.226318 1479.353027,893.261963 1487.239502,903.852844 
	C1493.438843,912.177917 1495.644775,922.103699 1497.144287,932.363647 
	C1499.310547,947.184937 1497.819702,961.537964 1491.810669,974.971863 
	C1487.433594,984.757141 1481.453857,993.914612 1475.467773,1002.869995 
	C1466.677979,1016.019226 1456.092407,1028.134521 1451.796265,1043.775757 
	C1450.174072,1049.681641 1449.872314,1055.950195 1448.900635,1062.499512 
z"/>
<path fill="#FF9BCB" opacity="1.000000" stroke="none" 
	d="
M69.838837,1074.256104 
	C67.612816,1072.434204 65.512405,1069.412842 63.121819,1069.162476 
	C61.141327,1068.955200 58.818630,1072.015747 56.402115,1073.884277 
	C56.338654,1056.850464 49.864277,1042.383423 38.314777,1029.650024 
	C28.934376,1019.308044 19.208101,1009.108093 13.464714,996.001953 
	C7.415090,982.197021 6.035431,967.981812 7.796023,953.008057 
	C9.850728,935.533020 18.410620,921.796509 29.475458,908.850891 
	C37.255707,899.748108 46.199543,891.449158 51.030697,880.044861 
	C55.474834,869.554138 57.142677,858.999573 56.283695,847.414917 
	C54.949638,829.423218 45.413567,816.265015 34.158684,803.684082 
	C25.266949,793.744873 16.314730,783.820679 12.028881,770.850952 
	C8.179809,759.203064 6.407705,747.453857 7.699771,734.909973 
	C9.257131,719.790527 14.835512,706.839600 24.016195,695.159180 
	C28.459902,689.505554 32.991089,683.878479 37.933998,678.667542 
	C51.402855,664.468323 58.405056,647.832397 56.910507,628.205505 
	C55.829334,614.007141 50.836594,601.333069 41.115997,590.441284 
	C30.850460,578.938904 19.249754,568.166931 13.857811,553.217773 
	C11.096314,545.561462 8.992690,537.428284 8.206080,529.353394 
	C6.913978,516.089417 7.612375,502.643433 14.138961,490.609589 
	C18.339891,482.863861 23.656879,475.657684 29.018673,468.625244 
	C34.667728,461.216003 41.500366,454.677826 46.848690,447.078369 
	C54.110806,436.759583 57.655464,424.986481 57.372589,411.480957 
	C59.915646,409.165039 62.405258,406.024536 64.345261,406.333618 
	C66.747948,406.716461 68.694931,409.959503 70.889145,412.406189 
	C70.626328,415.258514 70.139069,417.663727 70.029541,420.086029 
	C69.504318,431.701355 66.192596,442.559967 59.422585,451.873657 
	C51.674191,462.533386 42.890865,472.434967 34.731464,482.803040 
	C20.946751,500.319183 17.824402,519.904541 23.619263,541.219849 
	C27.678936,556.152588 38.390224,566.531799 48.114723,577.598877 
	C55.752117,586.290649 62.168167,595.679321 66.042053,606.710815 
	C70.605080,619.704651 70.729057,632.905151 69.128075,646.419983 
	C67.854149,657.174011 63.805813,666.807922 57.815384,675.387146 
	C51.752594,684.070007 44.736748,692.183350 37.449184,699.894836 
	C23.049871,715.131714 19.123035,733.475830 21.244064,753.375122 
	C21.958191,760.074951 24.127258,767.302124 27.797258,772.857422 
	C34.676323,783.270447 43.507629,792.371948 50.812649,802.532471 
	C56.147018,809.952148 61.096443,817.849731 64.864395,826.148621 
	C70.979713,839.617615 71.253906,854.127869 68.817734,868.481934 
	C67.701874,875.056763 66.001137,882.114563 62.443829,887.569763 
	C55.359322,898.433960 46.607719,908.195374 38.933056,918.696106 
	C33.923843,925.550049 28.756243,932.508240 25.177038,940.132202 
	C20.592894,949.896484 19.541389,960.373657 20.720787,971.484863 
	C22.221184,985.620361 28.187023,997.092407 37.058968,1007.555664 
	C42.873810,1014.413513 48.975124,1021.044983 54.507782,1028.122070 
	C65.062790,1041.623657 69.119431,1057.417236 69.838837,1074.256104 
z"/>
<path fill="#5271FF" opacity="1.000000" stroke="none" 
	d="
M1449.908447,390.510895 
	C1448.432251,388.169037 1447.195557,385.627045 1443.088501,385.858337 
	C1439.744141,386.046631 1437.890503,387.196716 1436.603638,390.411560 
	C1436.438843,385.617065 1436.940674,380.694336 1436.961670,375.769562 
	C1437.051514,354.621094 1437.110107,333.471252 1436.959351,312.323517 
	C1436.866455,299.302032 1433.687378,286.737518 1425.678589,276.578766 
	C1417.709351,266.470093 1408.682983,256.877167 1398.757202,248.715561 
	C1388.187134,240.024033 1375.421875,235.774078 1361.144409,235.855743 
	C1333.404175,236.014389 1305.659912,235.169449 1277.915894,235.044525 
	C1246.946167,234.905075 1215.974976,235.103699 1184.538940,235.094452 
	C1106.364868,234.954742 1028.656250,234.875275 950.947571,234.804733 
	C950.286377,234.804123 949.625000,234.923920 948.963745,234.987488 
	C948.963745,234.987503 949.026611,234.869965 948.711914,234.575775 
	C945.928162,234.448807 943.458984,234.616028 940.989868,234.783264 
	C932.786987,234.191925 924.592590,233.395386 916.379272,233.057007 
	C903.802368,232.538849 891.200684,232.574585 878.630859,231.947174 
	C856.903625,230.862701 835.188049,229.469040 813.852905,224.794678 
	C811.609619,224.303207 809.472168,223.328674 807.025757,222.293457 
	C853.418335,222.021225 900.070618,222.028748 946.722961,222.047470 
	C1020.533997,222.077103 1094.344971,222.114227 1168.619141,222.039093 
	C1233.708496,221.953369 1298.336060,221.763199 1362.960449,222.134750 
	C1381.531982,222.241531 1398.118042,229.088181 1411.500366,242.170959 
	C1420.709473,251.174026 1430.036133,260.308868 1437.674438,270.599213 
	C1446.034790,281.862549 1449.930054,295.356079 1449.974365,309.600769 
	C1450.057739,336.417328 1449.988770,363.234375 1449.908447,390.510895 
z"/>
<path fill="#5271FF" opacity="1.000000" stroke="none" 
	d="
M70.838776,411.966919 
	C68.694931,409.959503 66.747948,406.716461 64.345261,406.333618 
	C62.405258,406.024536 59.915646,409.165039 57.422077,411.040192 
	C57.119793,377.161957 56.523853,343.007935 57.206585,308.879517 
	C57.640968,287.165314 65.348022,267.932190 81.125816,252.149933 
	C88.377403,244.896286 94.198631,236.220459 103.433998,231.052246 
	C113.624825,225.349319 124.092560,220.939331 136.141144,220.950546 
	C239.581940,221.046799 343.022858,221.020233 446.969727,221.109528 
	C445.864258,225.326294 444.252747,229.463898 441.934998,233.792206 
	C439.151062,234.040649 437.073303,234.098404 434.531494,234.088867 
	C335.149841,234.014282 236.232239,233.997360 137.314651,234.042419 
	C134.064926,234.043900 130.758850,234.403015 127.576469,235.064316 
	C117.795952,237.096695 109.116020,241.689957 102.108040,248.623245 
	C95.710182,254.952881 90.107063,262.116852 84.429909,269.136505 
	C76.215744,279.293152 71.339661,291.138367 71.157249,304.070831 
	C70.650040,340.030518 70.892464,376.000824 70.838776,411.966919 
z"/>
<path fill="#5E17EB" opacity="1.000000" stroke="none" 
	d="
M1208.167725,490.042328 
	C1208.112427,493.205627 1208.008911,496.368958 1208.008667,499.532257 
	C1208.000732,668.511169 1208.047241,837.490051 1207.970093,1006.468933 
	C1207.950195,1050.067993 1177.826050,1083.002563 1137.329956,1088.910889 
	C1132.612793,1089.598999 1127.788574,1089.809814 1123.013916,1089.810547 
	C866.879211,1089.852295 610.744324,1089.703979 354.610016,1090.000000 
	C315.500977,1090.045166 283.208740,1066.159912 272.587891,1029.857544 
	C270.319397,1022.103638 270.038605,1013.563049 270.029877,1005.383667 
	C269.883057,867.901001 269.924622,730.418152 269.924591,592.935303 
	C269.924591,555.939941 270.309570,518.939087 269.783997,481.951172 
	C269.458923,459.074402 279.521057,442.106140 297.059692,428.890442 
	C309.909424,419.207947 324.607086,413.937317 340.720245,413.028381 
	C349.994446,412.505219 359.288330,412.043610 368.573425,412.041840 
	C636.206665,411.990021 903.839905,412.000092 1171.473145,411.998383 
	C1173.639282,411.998352 1175.805298,411.973694 1178.886230,411.960999 
	C1197.153809,410.390564 1208.880615,424.210419 1208.167847,440.762726 
	C1207.461670,457.158844 1208.112305,473.613403 1208.167725,490.042328 
M613.500000,602.852295 
	C515.742676,602.310486 417.985291,601.768677 320.171265,601.226562 
	C320.066345,602.694092 319.956055,603.516418 319.956024,604.338806 
	C319.955170,739.169739 319.928650,874.000732 320.010406,1008.831665 
	C320.020935,1026.190308 333.899628,1039.429932 351.679138,1039.431396 
	C609.674744,1039.451904 867.670288,1039.450317 1125.665894,1039.390991 
	C1128.925415,1039.390259 1132.355469,1039.074341 1135.414917,1038.042358 
	C1150.131470,1033.077881 1157.860596,1021.692810 1157.862183,1005.369446 
	C1157.874634,873.871704 1157.869507,742.373901 1157.869629,610.876160 
	C1157.869629,609.259277 1157.869629,607.642395 1157.869629,605.404419 
	C976.402710,604.553467 795.451355,603.704895 613.500000,602.852295 
M1078.461914,474.996460 
	C1060.306763,474.992493 1047.606689,492.420502 1054.458496,507.935852 
	C1059.780884,519.988098 1072.012329,526.339722 1084.102539,523.185486 
	C1094.587158,520.450195 1104.142944,511.023804 1102.131592,495.966980 
	C1100.478271,483.590668 1091.507812,474.808990 1078.461914,474.996460 
M889.009766,495.940552 
	C890.101685,500.886993 890.391968,506.200195 892.452332,510.703552 
	C896.745972,520.088379 907.675659,525.336426 917.718750,523.807129 
	C927.097717,522.379028 936.727722,514.394226 938.237000,504.160889 
	C940.164673,491.090454 934.004395,479.354889 921.886292,475.420837 
	C909.499634,471.399597 896.163940,477.707520 891.058716,490.014923 
	C890.362122,491.694183 889.727844,493.399353 889.009766,495.940552 
M999.057861,523.871033 
	C1015.232178,520.457336 1023.124207,508.864471 1020.021606,493.076447 
	C1017.811584,481.830780 1007.993958,475.392181 994.030823,474.879913 
	C982.256409,474.447876 971.373535,486.361755 971.054504,497.799103 
	C970.621948,513.309387 982.070374,524.144958 999.057861,523.871033 
z"/>
<path fill="#000000" opacity="1.000000" stroke="none" 
	d="
M70.889145,412.406189 
	C70.892464,376.000824 70.650040,340.030518 71.157249,304.070831 
	C71.339661,291.138367 76.215744,279.293152 84.429909,269.136505 
	C90.107063,262.116852 95.710182,254.952881 102.108040,248.623245 
	C109.116020,241.689957 117.795952,237.096695 127.576469,235.064316 
	C130.758850,234.403015 134.064926,234.043900 137.314651,234.042419 
	C236.232239,233.997360 335.149841,234.014282 434.360474,234.419418 
	C421.352722,240.105408 407.851807,244.945786 394.795624,250.781219 
	C372.302612,260.834381 351.527191,273.949463 331.465149,288.182892 
	C313.170471,301.162384 296.218506,315.772491 280.172668,331.411499 
	C272.716034,338.679047 265.586670,346.298828 258.572540,353.999023 
	C252.289810,360.896240 245.903748,367.780518 240.384995,375.275543 
	C228.899979,390.873444 217.057724,406.324066 207.017654,422.841431 
	C193.897751,444.425629 182.380447,466.983978 170.173676,489.123260 
	C159.381714,499.994751 150.102356,511.946838 143.541733,525.898132 
	C137.188797,539.407715 132.990814,553.497925 132.037888,568.432251 
	C131.492737,576.975891 131.332153,585.544128 131.006622,594.967773 
	C128.990173,604.636169 127.234520,613.510498 124.891579,622.226868 
	C117.150276,651.026794 113.467003,680.524292 110.180466,710.031311 
	C108.213493,727.691162 107.620842,745.536011 107.130417,763.317566 
	C106.788292,775.721497 107.525085,788.164978 108.042366,800.579834 
	C108.507912,811.753296 109.012924,822.942261 110.076385,834.069275 
	C111.408913,848.011536 112.870926,861.972046 115.112770,875.789062 
	C117.858170,892.709656 120.641808,909.702759 124.910439,926.277893 
	C130.517838,948.051453 136.569641,969.822998 144.319534,990.900696 
	C152.001129,1011.792664 161.577957,1032.036133 171.142914,1052.174805 
	C182.735474,1076.582764 196.999344,1099.500610 213.081940,1121.213501 
	C222.546936,1133.992188 232.427109,1146.475342 242.443207,1158.829712 
	C249.159241,1167.113770 256.264374,1175.102783 263.511200,1182.931519 
	C274.155853,1194.430664 284.868347,1205.883667 295.960999,1216.946045 
	C303.961060,1224.924072 312.627258,1232.234253 320.996338,1239.842163 
	C299.677002,1239.894775 278.357697,1239.978516 257.038300,1239.992920 
	C220.056717,1240.017944 183.073837,1240.173584 146.094177,1239.905518 
	C133.201569,1239.812134 120.644882,1236.775757 110.252029,1228.893188 
	C97.698555,1219.372070 85.161880,1209.542480 77.085197,1195.511353 
	C72.669975,1187.841187 69.918770,1179.658081 69.952393,1170.579346 
	C70.070229,1138.762207 69.992722,1106.944580 69.914124,1074.691650 
	C69.119431,1057.417236 65.062790,1041.623657 54.507782,1028.122070 
	C48.975124,1021.044983 42.873810,1014.413513 37.058968,1007.555664 
	C28.187023,997.092407 22.221184,985.620361 20.720787,971.484863 
	C19.541389,960.373657 20.592894,949.896484 25.177038,940.132202 
	C28.756243,932.508240 33.923843,925.550049 38.933056,918.696106 
	C46.607719,908.195374 55.359322,898.433960 62.443829,887.569763 
	C66.001137,882.114563 67.701874,875.056763 68.817734,868.481934 
	C71.253906,854.127869 70.979713,839.617615 64.864395,826.148621 
	C61.096443,817.849731 56.147018,809.952148 50.812649,802.532471 
	C43.507629,792.371948 34.676323,783.270447 27.797258,772.857422 
	C24.127258,767.302124 21.958191,760.074951 21.244064,753.375122 
	C19.123035,733.475830 23.049871,715.131714 37.449184,699.894836 
	C44.736748,692.183350 51.752594,684.070007 57.815384,675.387146 
	C63.805813,666.807922 67.854149,657.174011 69.128075,646.419983 
	C70.729057,632.905151 70.605080,619.704651 66.042053,606.710815 
	C62.168167,595.679321 55.752117,586.290649 48.114723,577.598877 
	C38.390224,566.531799 27.678936,556.152588 23.619263,541.219849 
	C17.824402,519.904541 20.946751,500.319183 34.731464,482.803040 
	C42.890865,472.434967 51.674191,462.533386 59.422585,451.873657 
	C66.192596,442.559967 69.504318,431.701355 70.029541,420.086029 
	C70.139069,417.663727 70.626328,415.258514 70.889145,412.406189 
z"/>
<path fill="#FF9BCB" opacity="1.000000" stroke="none" 
	d="
M1208.416748,490.274109 
	C1208.112305,473.613403 1207.461670,457.158844 1208.167847,440.762726 
	C1208.880615,424.210419 1197.153809,410.390564 1179.343262,411.893738 
	C1168.814941,386.071625 1157.256714,361.073914 1142.403931,337.645172 
	C1111.839233,289.432495 1068.501587,259.086853 1013.200012,246.259552 
	C992.282715,241.407745 970.789856,239.037125 949.261597,235.261505 
	C949.625000,234.923920 950.286377,234.804123 950.947571,234.804733 
	C1028.656250,234.875275 1106.364868,234.954742 1184.660522,235.405579 
	C1193.157471,242.677490 1201.051880,249.595596 1208.981201,256.473389 
	C1221.342407,267.195404 1233.746582,277.867889 1246.096313,288.603149 
	C1256.748169,297.862579 1267.473633,307.042755 1277.941406,316.507019 
	C1291.194458,328.489624 1304.522705,340.416107 1317.256104,352.938721 
	C1329.490234,364.970276 1339.322632,378.997955 1348.901245,393.244446 
	C1365.698853,418.227997 1378.367920,445.235931 1387.595459,473.676605 
	C1393.999390,493.414276 1398.842163,513.770386 1402.806152,534.156738 
	C1406.869385,555.054749 1409.398438,576.281311 1411.853149,597.450623 
	C1413.312256,610.033813 1413.848022,622.782349 1413.886841,635.459351 
	C1413.955933,658.041077 1413.333252,680.625061 1413.000122,703.208069 
	C1412.995239,703.541260 1413.019897,703.876465 1412.991821,704.207458 
	C1411.664062,719.896606 1410.334961,735.585510 1408.998901,751.273987 
	C1407.997192,763.037170 1407.210449,774.824219 1405.919067,786.555603 
	C1404.528320,799.187744 1402.567261,811.755981 1401.028564,824.373230 
	C1399.565186,836.371277 1398.332886,848.397461 1396.986572,860.409912 
	C1395.331177,875.182373 1393.553955,889.942139 1392.031616,904.728271 
	C1390.555786,919.060181 1389.391357,933.423889 1387.990845,947.763916 
	C1386.158447,966.527649 1381.507080,984.690002 1376.053711,1002.671875 
	C1369.045288,1025.781738 1359.539185,1047.882690 1346.793457,1068.330322 
	C1333.879028,1089.048584 1320.085449,1109.243164 1306.080566,1129.249512 
	C1295.465088,1144.414185 1283.772339,1158.819946 1272.814087,1173.750732 
	C1259.553467,1191.818726 1246.147583,1209.744507 1230.041382,1225.443848 
	C1224.738159,1230.613037 1219.352539,1235.697510 1214.004639,1240.820679 
	C1212.015869,1240.965454 1210.026978,1241.238159 1208.038330,1241.236816 
	C1120.011353,1241.173584 1031.984375,1241.086304 943.495850,1240.935913 
	C958.250244,1236.914307 973.288391,1231.961304 988.719116,1229.211914 
	C1020.248962,1223.594238 1052.224365,1223.676758 1084.150269,1224.113281 
	C1094.954224,1224.260986 1105.780884,1225.240479 1116.551636,1224.778320 
	C1138.735962,1223.826416 1160.921387,1223.151001 1182.475464,1216.243530 
	C1206.634277,1208.501343 1226.238159,1194.820312 1241.196411,1174.521851 
	C1256.829468,1153.307495 1266.696655,1129.247314 1272.598633,1103.855469 
	C1277.275513,1083.734863 1280.273071,1063.158691 1282.882324,1042.640503 
	C1285.641846,1020.939880 1286.664307,999.023376 1289.153687,977.282166 
	C1293.219116,941.776733 1303.432495,908.262329 1320.809204,876.724060 
	C1335.973022,849.202271 1350.098755,821.053589 1363.419556,792.590454 
	C1372.228882,773.767151 1377.916016,753.756775 1378.147095,732.508301 
	C1378.420532,707.362183 1369.628906,685.710449 1354.007690,666.524719 
	C1339.878052,649.170959 1323.063843,634.581543 1305.977417,620.262085 
	C1283.710938,601.601379 1263.986816,580.554077 1246.959961,556.962402 
	C1231.908936,536.108276 1218.883423,514.125977 1208.416748,490.274109 
z"/>
<path fill="#FF9BCB" opacity="1.000000" stroke="none" 
	d="
M321.460815,1239.905029 
	C312.627258,1232.234253 303.961060,1224.924072 295.960999,1216.946045 
	C284.868347,1205.883667 274.155853,1194.430664 263.511200,1182.931519 
	C256.264374,1175.102783 249.159241,1167.113770 242.443207,1158.829712 
	C232.427109,1146.475342 222.546936,1133.992188 213.081940,1121.213501 
	C196.999344,1099.500610 182.735474,1076.582764 171.142914,1052.174805 
	C161.577957,1032.036133 152.001129,1011.792664 144.319534,990.900696 
	C136.569641,969.822998 130.517838,948.051453 124.910439,926.277893 
	C120.641808,909.702759 117.858170,892.709656 115.112770,875.789062 
	C112.870926,861.972046 111.408913,848.011536 110.076385,834.069275 
	C109.012924,822.942261 108.507912,811.753296 108.042366,800.579834 
	C107.525085,788.164978 106.788292,775.721497 107.130417,763.317566 
	C107.620842,745.536011 108.213493,727.691162 110.180466,710.031311 
	C113.467003,680.524292 117.150276,651.026794 124.891579,622.226868 
	C127.234520,613.510498 128.990173,604.636169 131.084183,595.432617 
	C132.762360,604.458740 134.168167,613.926392 136.017883,623.306519 
	C141.632233,651.777588 152.557465,678.248291 166.116257,703.803101 
	C180.292419,730.521484 196.707184,756.293945 205.095901,785.655273 
	C208.985718,799.270081 211.067108,813.494263 212.908096,827.580750 
	C215.950180,850.857849 211.818649,873.892639 209.255463,896.961975 
	C206.819763,918.883606 203.230530,940.691345 203.906433,962.904785 
	C204.704666,989.138733 213.753601,1012.235413 229.476547,1032.871948 
	C246.574234,1055.312866 267.503937,1073.596802 292.994110,1085.630005 
	C311.883209,1094.546997 331.656830,1101.691895 351.324646,1108.832397 
	C376.319855,1117.906982 401.793335,1125.675659 426.719299,1134.927002 
	C456.675659,1146.045654 482.924622,1163.336426 503.756226,1187.655273 
	C517.992371,1204.274658 530.595215,1222.292969 544.049194,1239.964600 
	C535.196899,1240.391602 526.223328,1240.688477 517.250610,1240.663818 
	C462.466675,1240.513062 407.682953,1240.289795 352.899139,1240.089600 
	C342.574524,1240.051880 332.249878,1240.008667 321.460815,1239.905029 
z"/>
<path fill="#FF9BCB" opacity="1.000000" stroke="none" 
	d="
M170.503601,489.045074 
	C182.380447,466.983978 193.897751,444.425629 207.017654,422.841431 
	C217.057724,406.324066 228.899979,390.873444 240.384995,375.275543 
	C245.903748,367.780518 252.289810,360.896240 258.572540,353.999023 
	C265.586670,346.298828 272.716034,338.679047 280.172668,331.411499 
	C296.218506,315.772491 313.170471,301.162384 331.465149,288.182892 
	C351.527191,273.949463 372.302612,260.834381 394.795624,250.781219 
	C407.851807,244.945786 421.352722,240.105408 434.824554,234.486725 
	C437.073303,234.098404 439.151062,234.040649 441.679321,234.032974 
	C438.434204,243.507751 434.949524,253.021851 431.001190,262.339478 
	C421.248688,285.354523 410.261902,307.726379 395.112366,327.784424 
	C387.376923,338.026245 378.432220,347.055908 368.517883,355.279938 
	C362.710236,360.097443 357.884674,366.135834 352.823975,371.809326 
	C342.208527,383.710205 329.782990,393.505829 316.044403,401.291962 
	C293.476227,414.082184 270.410217,425.993896 247.555191,438.278046 
	C225.871292,449.932739 204.099777,461.452789 184.877914,477.075958 
	C180.118820,480.944092 175.510925,484.998230 170.503601,489.045074 
z"/>
<path fill="#8A7EEE" opacity="1.000000" stroke="none" 
	d="
M941.433838,234.831406 
	C943.458984,234.616028 945.928162,234.448807 948.695862,234.511108 
	C946.622253,234.786926 944.250061,234.833237 941.433838,234.831406 
z"/>
<path fill="#C1BBFF" opacity="1.000000" stroke="none" 
	d="
M912.622192,1253.288208 
	C912.474243,1253.600098 911.978088,1253.803223 911.204468,1254.033936 
	C910.926880,1254.061523 910.872070,1253.734985 910.860229,1253.570557 
	C911.323669,1253.330566 911.798828,1253.255005 912.622192,1253.288208 
z"/>
<path fill="#000000" opacity="1.000000" stroke="none" 
	d="
M1214.468750,1240.898193 
	C1219.352539,1235.697510 1224.738159,1230.613037 1230.041382,1225.443848 
	C1246.147583,1209.744507 1259.553467,1191.818726 1272.814087,1173.750732 
	C1283.772339,1158.819946 1295.465088,1144.414185 1306.080566,1129.249512 
	C1320.085449,1109.243164 1333.879028,1089.048584 1346.793457,1068.330322 
	C1359.539185,1047.882690 1369.045288,1025.781738 1376.053711,1002.671875 
	C1381.507080,984.690002 1386.158447,966.527649 1387.990845,947.763916 
	C1389.391357,933.423889 1390.555786,919.060181 1392.031616,904.728271 
	C1393.553955,889.942139 1395.331177,875.182373 1396.986572,860.409912 
	C1398.332886,848.397461 1399.565186,836.371277 1401.028564,824.373230 
	C1402.567261,811.755981 1404.528320,799.187744 1405.919067,786.555603 
	C1407.210449,774.824219 1407.997192,763.037170 1408.998901,751.273987 
	C1410.334961,735.585510 1411.664062,719.896606 1412.991821,704.207458 
	C1413.019897,703.876465 1412.995239,703.541260 1413.000122,703.208069 
	C1413.333252,680.625061 1413.955933,658.041077 1413.886841,635.459351 
	C1413.848022,622.782349 1413.312256,610.033813 1411.853149,597.450623 
	C1409.398438,576.281311 1406.869385,555.054749 1402.806152,534.156738 
	C1398.842163,513.770386 1393.999390,493.414276 1387.595459,473.676605 
	C1378.367920,445.235931 1365.698853,418.227997 1348.901245,393.244446 
	C1339.322632,378.997955 1329.490234,364.970276 1317.256104,352.938721 
	C1304.522705,340.416107 1291.194458,328.489624 1277.941406,316.507019 
	C1267.473633,307.042755 1256.748169,297.862579 1246.096313,288.603149 
	C1233.746582,277.867889 1221.342407,267.195404 1208.981201,256.473389 
	C1201.051880,249.595596 1193.157471,242.677490 1185.125977,235.466293 
	C1215.974976,235.103699 1246.946167,234.905075 1277.915894,235.044525 
	C1305.659912,235.169449 1333.404175,236.014389 1361.144409,235.855743 
	C1375.421875,235.774078 1388.187134,240.024033 1398.757202,248.715561 
	C1408.682983,256.877167 1417.709351,266.470093 1425.678589,276.578766 
	C1433.687378,286.737518 1436.866455,299.302032 1436.959351,312.323517 
	C1437.110107,333.471252 1437.051514,354.621094 1436.961670,375.769562 
	C1436.940674,380.694336 1436.438843,385.617065 1436.505859,390.777527 
	C1435.718262,410.223816 1442.755249,426.705536 1454.238892,441.487274 
	C1460.269409,449.249878 1467.314697,456.223846 1473.351685,463.981995 
	C1480.684082,473.405365 1484.561035,484.315247 1484.991821,496.329803 
	C1485.369263,506.860779 1485.237183,517.438293 1479.935425,526.901855 
	C1476.166260,533.629883 1471.903442,540.178711 1467.117432,546.218262 
	C1458.737061,556.793457 1448.761963,566.115295 1442.823120,578.556030 
	C1435.738525,593.396667 1434.899780,608.862488 1436.844849,624.940002 
	C1439.121216,643.757507 1449.336426,657.975403 1461.701904,671.235596 
	C1471.628784,681.880737 1480.484863,693.209839 1483.513550,707.975830 
	C1487.725586,728.510376 1483.568237,747.025146 1470.182251,763.318848 
	C1462.509033,772.658875 1454.259277,781.593872 1447.329590,791.456360 
	C1440.691895,800.903137 1437.169556,811.738098 1435.822754,823.514160 
	C1433.635742,842.635864 1437.554077,860.125183 1448.142944,875.883301 
	C1453.406616,883.716797 1460.039917,890.664001 1466.336182,897.761536 
	C1475.104614,907.646057 1481.862183,918.637329 1483.895264,931.782166 
	C1487.045044,952.145447 1481.945679,970.639099 1470.096558,987.486572 
	C1461.724487,999.390015 1453.457397,1011.398376 1445.815308,1023.774719 
	C1439.064697,1034.707275 1435.782471,1046.892212 1436.108765,1060.307861 
	C1435.784302,1098.975098 1435.347046,1137.213989 1435.027466,1175.453735 
	C1434.930664,1187.028320 1430.974609,1197.502197 1423.980957,1206.141113 
	C1415.134033,1217.068970 1405.322510,1227.624878 1392.374390,1233.796631 
	C1385.049683,1237.287964 1376.741455,1240.594604 1368.837524,1240.687256 
	C1317.541992,1241.288818 1266.235596,1240.983887 1214.468750,1240.898193 
z"/>
<path fill="#FFFFFF" opacity="1.000000" stroke="none" 
	d="
M614.000000,602.854309 
	C795.451355,603.704895 976.402710,604.553467 1157.869629,605.404419 
	C1157.869629,607.642395 1157.869629,609.259277 1157.869629,610.876160 
	C1157.869507,742.373901 1157.874634,873.871704 1157.862183,1005.369446 
	C1157.860596,1021.692810 1150.131470,1033.077881 1135.414917,1038.042358 
	C1132.355469,1039.074341 1128.925415,1039.390259 1125.665894,1039.390991 
	C867.670288,1039.450317 609.674744,1039.451904 351.679138,1039.431396 
	C333.899628,1039.429932 320.020935,1026.190308 320.010406,1008.831665 
	C319.928650,874.000732 319.955170,739.169739 319.956024,604.338806 
	C319.956055,603.516418 320.066345,602.694092 320.171265,601.226562 
	C417.985291,601.768677 515.742676,602.310486 614.000000,602.854309 
M745.048157,722.418396 
	C748.088867,731.859070 750.011597,741.859253 754.399414,750.625671 
	C763.987366,769.781555 779.950806,783.709473 796.240967,797.028442 
	C814.158020,811.677429 832.711060,825.561890 850.376709,840.501160 
	C868.765320,856.051758 881.553589,874.587769 879.120178,900.559631 
	C877.574158,917.060120 871.639893,931.236511 859.014526,941.878601 
	C840.889526,957.156494 819.786499,962.429016 796.357483,958.533691 
	C784.164795,956.506653 772.918457,952.279724 763.348083,944.377075 
	C745.836365,929.916931 739.033691,911.282959 743.051453,888.980408 
	C744.772461,879.426880 747.746094,870.100647 749.513000,860.553162 
	C750.484375,855.304016 751.510620,849.612854 747.452942,844.833618 
	C741.966980,838.372131 730.980103,837.568359 724.733459,843.895996 
	C721.463013,847.208923 718.522888,851.536621 717.190308,855.937927 
	C713.896484,866.817444 711.450134,877.966797 708.969910,889.076111 
	C705.941406,902.641052 708.397705,916.104187 712.621277,928.757568 
	C721.832703,956.354248 741.765686,974.293030 768.758301,983.630371 
	C792.189636,991.735657 816.412292,992.673157 840.575623,985.937317 
	C863.603210,979.518188 882.769104,967.314941 896.754883,947.647644 
	C907.324585,932.784180 912.959595,916.325134 913.100525,897.906616 
	C913.184753,886.895569 912.399475,876.091370 908.809143,865.674133 
	C903.382629,849.929077 894.148987,836.366577 881.847717,825.476746 
	C863.409668,809.154297 844.140564,793.764832 825.100952,778.129639 
	C811.714844,767.136963 797.656372,756.813904 787.756836,742.284424 
	C779.531128,730.211548 775.496521,717.205505 779.802917,702.366638 
	C788.602722,672.044312 826.123779,666.768860 846.465515,678.770813 
	C856.529114,684.708557 863.101807,692.963928 863.029114,705.302856 
	C862.996399,710.855286 862.942261,716.408203 862.981445,721.960327 
	C863.030029,728.834290 866.338196,733.192566 872.914185,735.212646 
	C883.199524,738.372192 892.852112,731.362732 893.909302,719.301941 
	C894.551880,711.970947 894.482666,704.511841 893.988098,697.160400 
	C892.899170,680.973328 885.439880,667.735229 872.666260,658.148499 
	C848.122742,639.728333 820.715881,638.968750 792.677551,647.855408 
	C770.627808,654.843933 755.138550,669.536499 747.859314,691.790894 
	C744.733459,701.347595 742.223511,711.267456 745.048157,722.418396 
M645.135254,724.647400 
	C632.442078,758.297241 619.694580,791.926697 607.077576,825.605103 
	C600.289490,843.724487 593.594543,861.880981 587.090820,880.104004 
	C577.344910,907.411743 566.618835,934.247131 551.011902,958.865479 
	C549.775024,960.816528 548.792358,962.961304 547.931580,965.112122 
	C545.646973,970.820801 548.655151,979.070374 554.295471,982.892029 
	C559.054871,986.116699 564.256775,985.398376 569.503479,980.532715 
	C571.191467,978.967285 572.719604,977.108887 573.892700,975.130615 
	C578.220947,967.831970 583.155518,960.760071 586.444214,953.001892 
	C597.973206,925.805054 609.273926,898.498596 619.967285,870.964233 
	C629.609009,846.137878 638.158691,820.889832 647.515747,795.949890 
	C661.425293,758.875793 674.794617,721.560364 696.851562,688.148254 
	C699.170959,684.634827 698.996033,678.838196 698.489624,674.265747 
	C697.926392,669.179932 692.829346,666.235840 687.537720,665.955200 
	C679.603821,665.534302 675.602417,671.093628 671.605286,676.356201 
	C660.547424,690.915039 652.944031,707.414978 645.135254,724.647400 
M1035.418701,834.923401 
	C1037.471924,832.975525 1039.536743,831.039612 1041.576050,829.077393 
	C1046.493286,824.345703 1046.533691,821.837585 1041.531250,817.065186 
	C1025.994385,802.242981 1010.430603,787.449158 994.843079,772.680420 
	C987.474365,765.698669 980.276611,758.506042 972.546936,751.944275 
	C964.688354,745.273132 953.266235,748.857056 949.944763,758.635620 
	C947.672119,765.326477 949.456604,771.084900 954.491699,775.878540 
	C968.838684,789.536987 983.226074,803.153076 997.570984,816.813660 
	C1002.783813,821.777771 1002.541809,825.023743 997.106628,829.980957 
	C982.348877,843.440979 967.578552,856.889832 953.001160,870.543762 
	C946.156738,876.954651 946.006531,886.226929 952.110046,892.775513 
	C958.268555,899.382996 965.532654,899.614136 973.001343,892.763855 
	C993.731018,873.750916 1014.276184,854.536743 1035.418701,834.923401 
M505.262207,837.238464 
	C502.560547,834.764709 499.839172,832.312073 497.161133,829.812988 
	C491.118958,824.174561 491.077118,822.103516 497.004272,816.460083 
	C511.476074,802.680725 526.066162,789.023987 540.420959,775.124084 
	C546.759644,768.986206 546.755920,759.809448 540.950684,753.618958 
	C535.092651,747.372070 526.845154,746.966431 520.076233,753.316772 
	C497.245728,774.735352 474.587006,796.337402 451.927673,817.937622 
	C447.890198,821.786438 448.031067,824.513672 452.154999,828.483704 
	C456.472687,832.640381 460.917603,836.664917 465.306702,840.747437 
	C483.716766,857.871521 502.102997,875.021362 520.549683,892.105957 
	C527.180481,898.247131 535.020996,898.654358 541.262939,893.344116 
	C547.748352,887.826721 550.320801,878.338684 540.765259,869.782776 
	C528.980774,859.231262 517.443237,848.404053 505.262207,837.238464 
z"/>
<path fill="#7ED858" opacity="1.000000" stroke="none" 
	d="
M1078.926025,474.996368 
	C1091.507812,474.808990 1100.478271,483.590668 1102.131592,495.966980 
	C1104.142944,511.023804 1094.587158,520.450195 1084.102539,523.185486 
	C1072.012329,526.339722 1059.780884,519.988098 1054.458496,507.935852 
	C1047.606689,492.420502 1060.306763,474.992493 1078.926025,474.996368 
z"/>
<path fill="#EC1C6F" opacity="1.000000" stroke="none" 
	d="
M889.037231,495.516541 
	C889.727844,493.399353 890.362122,491.694183 891.058716,490.014923 
	C896.163940,477.707520 909.499634,471.399597 921.886292,475.420837 
	C934.004395,479.354889 940.164673,491.090454 938.237000,504.160889 
	C936.727722,514.394226 927.097717,522.379028 917.718750,523.807129 
	C907.675659,525.336426 896.745972,520.088379 892.452332,510.703552 
	C890.391968,506.200195 890.101685,500.886993 889.037231,495.516541 
z"/>
<path fill="#FEDD5A" opacity="1.000000" stroke="none" 
	d="
M998.623352,523.895569 
	C982.070374,524.144958 970.621948,513.309387 971.054504,497.799103 
	C971.373535,486.361755 982.256409,474.447876 994.030823,474.879913 
	C1007.993958,475.392181 1017.811584,481.830780 1020.021606,493.076447 
	C1023.124207,508.864471 1015.232178,520.457336 998.623352,523.895569 
z"/>
<path fill="#8D53FF" opacity="1.000000" stroke="none" 
	d="
M745.008423,721.977844 
	C742.223511,711.267456 744.733459,701.347595 747.859314,691.790894 
	C755.138550,669.536499 770.627808,654.843933 792.677551,647.855408 
	C820.715881,638.968750 848.122742,639.728333 872.666260,658.148499 
	C885.439880,667.735229 892.899170,680.973328 893.988098,697.160400 
	C894.482666,704.511841 894.551880,711.970947 893.909302,719.301941 
	C892.852112,731.362732 883.199524,738.372192 872.914185,735.212646 
	C866.338196,733.192566 863.030029,728.834290 862.981445,721.960327 
	C862.942261,716.408203 862.996399,710.855286 863.029114,705.302856 
	C863.101807,692.963928 856.529114,684.708557 846.465515,678.770813 
	C826.123779,666.768860 788.602722,672.044312 779.802917,702.366638 
	C775.496521,717.205505 779.531128,730.211548 787.756836,742.284424 
	C797.656372,756.813904 811.714844,767.136963 825.100952,778.129639 
	C844.140564,793.764832 863.409668,809.154297 881.847717,825.476746 
	C894.148987,836.366577 903.382629,849.929077 908.809143,865.674133 
	C912.399475,876.091370 913.184753,886.895569 913.100525,897.906616 
	C912.959595,916.325134 907.324585,932.784180 896.754883,947.647644 
	C882.769104,967.314941 863.603210,979.518188 840.575623,985.937317 
	C816.412292,992.673157 792.189636,991.735657 768.758301,983.630371 
	C741.765686,974.293030 721.832703,956.354248 712.621277,928.757568 
	C708.397705,916.104187 705.941406,902.641052 708.969910,889.076111 
	C711.450134,877.966797 713.896484,866.817444 717.190308,855.937927 
	C718.522888,851.536621 721.463013,847.208923 724.733459,843.895996 
	C730.980103,837.568359 741.966980,838.372131 747.452942,844.833618 
	C751.510620,849.612854 750.484375,855.304016 749.513000,860.553162 
	C747.746094,870.100647 744.772461,879.426880 743.051453,888.980408 
	C739.033691,911.282959 745.836365,929.916931 763.348083,944.377075 
	C772.918457,952.279724 784.164795,956.506653 796.357483,958.533691 
	C819.786499,962.429016 840.889526,957.156494 859.014526,941.878601 
	C871.639893,931.236511 877.574158,917.060120 879.120178,900.559631 
	C881.553589,874.587769 868.765320,856.051758 850.376709,840.501160 
	C832.711060,825.561890 814.158020,811.677429 796.240967,797.028442 
	C779.950806,783.709473 763.987366,769.781555 754.399414,750.625671 
	C750.011597,741.859253 748.088867,731.859070 745.008423,721.977844 
z"/>
<path fill="#8D53FF" opacity="1.000000" stroke="none" 
	d="
M645.296387,724.303589 
	C652.944031,707.414978 660.547424,690.915039 671.605286,676.356201 
	C675.602417,671.093628 679.603821,665.534302 687.537720,665.955200 
	C692.829346,666.235840 697.926392,669.179932 698.489624,674.265747 
	C698.996033,678.838196 699.170959,684.634827 696.851562,688.148254 
	C674.794617,721.560364 661.425293,758.875793 647.515747,795.949890 
	C638.158691,820.889832 629.609009,846.137878 619.967285,870.964233 
	C609.273926,898.498596 597.973206,925.805054 586.444214,953.001892 
	C583.155518,960.760071 578.220947,967.831970 573.892700,975.130615 
	C572.719604,977.108887 571.191467,978.967285 569.503479,980.532715 
	C564.256775,985.398376 559.054871,986.116699 554.295471,982.892029 
	C548.655151,979.070374 545.646973,970.820801 547.931580,965.112122 
	C548.792358,962.961304 549.775024,960.816528 551.011902,958.865479 
	C566.618835,934.247131 577.344910,907.411743 587.090820,880.104004 
	C593.594543,861.880981 600.289490,843.724487 607.077576,825.605103 
	C619.694580,791.926697 632.442078,758.297241 645.296387,724.303589 
z"/>
<path fill="#8D53FF" opacity="1.000000" stroke="none" 
	d="
M1035.156494,835.162720 
	C1014.276184,854.536743 993.731018,873.750916 973.001343,892.763855 
	C965.532654,899.614136 958.268555,899.382996 952.110046,892.775513 
	C946.006531,886.226929 946.156738,876.954651 953.001160,870.543762 
	C967.578552,856.889832 982.348877,843.440979 997.106628,829.980957 
	C1002.541809,825.023743 1002.783813,821.777771 997.570984,816.813660 
	C983.226074,803.153076 968.838684,789.536987 954.491699,775.878540 
	C949.456604,771.084900 947.672119,765.326477 949.944763,758.635620 
	C953.266235,748.857056 964.688354,745.273132 972.546936,751.944275 
	C980.276611,758.506042 987.474365,765.698669 994.843079,772.680420 
	C1010.430603,787.449158 1025.994385,802.242981 1041.531250,817.065186 
	C1046.533691,821.837585 1046.493286,824.345703 1041.576050,829.077393 
	C1039.536743,831.039612 1037.471924,832.975525 1035.156494,835.162720 
z"/>
<path fill="#8D53FF" opacity="1.000000" stroke="none" 
	d="
M505.530579,837.467224 
	C517.443237,848.404053 528.980774,859.231262 540.765259,869.782776 
	C550.320801,878.338684 547.748352,887.826721 541.262939,893.344116 
	C535.020996,898.654358 527.180481,898.247131 520.549683,892.105957 
	C502.102997,875.021362 483.716766,857.871521 465.306702,840.747437 
	C460.917603,836.664917 456.472687,832.640381 452.154999,828.483704 
	C448.031067,824.513672 447.890198,821.786438 451.927673,817.937622 
	C474.587006,796.337402 497.245728,774.735352 520.076233,753.316772 
	C526.845154,746.966431 535.092651,747.372070 540.950684,753.618958 
	C546.755920,759.809448 546.759644,768.986206 540.420959,775.124084 
	C526.066162,789.023987 511.476074,802.680725 497.004272,816.460083 
	C491.077118,822.103516 491.118958,824.174561 497.161133,829.812988 
	C499.839172,832.312073 502.560547,834.764709 505.530579,837.467224 
z"/>
</svg>